<?xml version="1.0" encoding="utf-8"?>
<!-- Generator: Adobe Illustrator 23.0.2, SVG Export Plug-In . SVG Version: 6.00 Build 0)  -->
<svg version="1.1" id="Layer_1" xmlns="http://www.w3.org/2000/svg" xmlns:xlink="http://www.w3.org/1999/xlink" x="0px" y="0px"
	 viewBox="0 0 1000 1000" style="enable-background:new 0 0 1000 1000;" xml:space="preserve">
<style type="text/css">
	.st0{fill:#FFF4A7;}
	.st1{font-family:'GathaSans';}
	.st2{font-size:148.8467px;}
	.st3{fill:url(#SVGID_1_);}
	.st4{fill:url(#SVGID_2_);}
	.st5{fill:url(#SVGID_3_);}
	.st6{fill:url(#SVGID_4_);}
	.st7{fill:url(#SVGID_5_);}
	.st8{fill:url(#SVGID_6_);}
	.st9{fill:url(#SVGID_7_);}
	.st10{fill:url(#SVGID_8_);}
	.st11{fill:url(#SVGID_9_);}
	.st12{fill:url(#SVGID_10_);}
	.st13{fill:url(#SVGID_11_);}
	.st14{fill:url(#SVGID_12_);}
	.st15{fill:#B47F2B;}
	.st16{fill:url(#SVGID_13_);}
	.st17{fill:url(#SVGID_14_);}
	.st18{fill:url(#SVGID_15_);}
	.st19{fill:url(#SVGID_16_);}
	.st20{fill:url(#SVGID_17_);}
	.st21{fill:url(#SVGID_18_);}
	.st22{fill:url(#SVGID_19_);}
	.st23{fill:url(#SVGID_20_);}
</style>
<text transform="matrix(1 0 0 1 374.7613 180.602)" class="st0 st1 st2">Prami&apos;s</text>
<g>
	<text transform="matrix(1 0 0 1 374.7613 340.2787)" class="st0 st1 st2">Group</text>
</g>
<g>
	<text transform="matrix(1 0 0 1 388.5494 743.5942)" class="st0 st1 st2">Prami&apos;s</text>
</g>
<g>
	<text transform="matrix(1 0 0 1 388.5489 903.2709)" class="st0 st1 st2">Group</text>
</g>
<g>
	<linearGradient id="SVGID_1_" gradientUnits="userSpaceOnUse" x1="1276.6543" y1="141.3799" x2="1353.3115" y2="141.3799">
		<stop  offset="0" style="stop-color:#B47F2B"/>
		<stop  offset="0.1507" style="stop-color:#B47F2B"/>
		<stop  offset="0.4593" style="stop-color:#E0BD5F"/>
		<stop  offset="0.6129" style="stop-color:#F8DF7C"/>
		<stop  offset="0.7204" style="stop-color:#FFF4A7"/>
		<stop  offset="0.8387" style="stop-color:#F8DF7C"/>
		<stop  offset="1" style="stop-color:#B47F2B"/>
	</linearGradient>
	<path class="st3" d="M1312.38,165.2h-15.48v29.32h-20.09l-0.15-67.88c0-21.14,17.27-38.4,38.4-38.4
		c20.09,0,37.06,15.78,38.25,36.02C1353.31,146.89,1335,165.2,1312.38,165.2z M1333.22,125.01c-0.74-9.38-8.63-16.67-18.16-16.67
		c-9.97,0-18.16,8.19-18.16,18.31v18.46h16.22C1324.29,145.1,1333.22,136.02,1333.22,125.01z"/>
	<linearGradient id="SVGID_2_" gradientUnits="userSpaceOnUse" x1="1362.0898" y1="156.1157" x2="1438.8965" y2="156.1157">
		<stop  offset="0" style="stop-color:#B47F2B"/>
		<stop  offset="0.1507" style="stop-color:#B47F2B"/>
		<stop  offset="0.4593" style="stop-color:#E0BD5F"/>
		<stop  offset="0.6129" style="stop-color:#F8DF7C"/>
		<stop  offset="0.7204" style="stop-color:#FFF4A7"/>
		<stop  offset="0.8387" style="stop-color:#F8DF7C"/>
		<stop  offset="1" style="stop-color:#B47F2B"/>
	</linearGradient>
	<path class="st4" d="M1362.09,156.12c0-21.14,17.27-38.4,38.4-38.4s38.4,17.27,38.4,38.4h-20.09c0-10.12-8.19-18.31-18.31-18.31
		c-10.12,0-18.31,8.19-18.31,18.31v38.4h-20.09V156.12z"/>
	<linearGradient id="SVGID_3_" gradientUnits="userSpaceOnUse" x1="1445.1445" y1="156.1157" x2="1521.9512" y2="156.1157">
		<stop  offset="0" style="stop-color:#B47F2B"/>
		<stop  offset="0.1507" style="stop-color:#B47F2B"/>
		<stop  offset="0.4593" style="stop-color:#E0BD5F"/>
		<stop  offset="0.6129" style="stop-color:#F8DF7C"/>
		<stop  offset="0.7204" style="stop-color:#FFF4A7"/>
		<stop  offset="0.8387" style="stop-color:#F8DF7C"/>
		<stop  offset="1" style="stop-color:#B47F2B"/>
	</linearGradient>
	<path class="st5" d="M1501.86,189.9c-5.51,2.98-11.61,4.61-18.31,4.61c-21.14,0-38.4-17.27-38.4-38.4s17.27-38.4,38.4-38.4
		s38.4,17.27,38.4,38.4v38.4h-20.09V189.9z M1483.55,174.42c10.12,0,18.31-8.19,18.31-18.31s-8.19-18.31-18.31-18.31
		s-18.31,8.19-18.31,18.31S1473.43,174.42,1483.55,174.42z"/>
	<linearGradient id="SVGID_4_" gradientUnits="userSpaceOnUse" x1="1534.75" y1="156.1157" x2="1611.5566" y2="156.1157">
		<stop  offset="0" style="stop-color:#B47F2B"/>
		<stop  offset="0.1507" style="stop-color:#B47F2B"/>
		<stop  offset="0.4593" style="stop-color:#E0BD5F"/>
		<stop  offset="0.6129" style="stop-color:#F8DF7C"/>
		<stop  offset="0.7204" style="stop-color:#FFF4A7"/>
		<stop  offset="0.8387" style="stop-color:#F8DF7C"/>
		<stop  offset="1" style="stop-color:#B47F2B"/>
	</linearGradient>
	<path class="st6" d="M1583.13,141.83v52.69h-20.09v-52.69c0-2.23-1.79-4.02-4.02-4.02c-2.38,0-4.17,1.79-4.17,4.17v52.54h-20.09
		v-52.54c0-13.4,10.87-24.26,24.26-24.26c5.21,0,10.12,1.79,14.14,4.61c4.02-2.83,8.78-4.61,14.14-4.61
		c13.4,0,24.26,10.87,24.26,24.26v52.54h-20.09v-52.54c0-2.38-1.94-4.17-4.17-4.17S1583.13,139.59,1583.13,141.83z"/>
	<linearGradient id="SVGID_5_" gradientUnits="userSpaceOnUse" x1="1625.0996" y1="141.3799" x2="1645.1943" y2="141.3799">
		<stop  offset="0" style="stop-color:#B47F2B"/>
		<stop  offset="0.1507" style="stop-color:#B47F2B"/>
		<stop  offset="0.4593" style="stop-color:#E0BD5F"/>
		<stop  offset="0.6129" style="stop-color:#F8DF7C"/>
		<stop  offset="0.7204" style="stop-color:#FFF4A7"/>
		<stop  offset="0.8387" style="stop-color:#F8DF7C"/>
		<stop  offset="1" style="stop-color:#B47F2B"/>
	</linearGradient>
	<path class="st7" d="M1635.07,88.24c5.66,0,10.12,4.46,10.12,9.97c0,5.66-4.47,10.12-10.12,10.12c-5.51,0-9.97-4.47-9.97-10.12
		C1625.1,92.71,1629.57,88.24,1635.07,88.24z M1645.19,117.71v76.81h-20.09v-76.81H1645.19z"/>
	<linearGradient id="SVGID_6_" gradientUnits="userSpaceOnUse" x1="1656.8018" y1="101.2646" x2="1676.8965" y2="101.2646">
		<stop  offset="0" style="stop-color:#B47F2B"/>
		<stop  offset="0.1507" style="stop-color:#B47F2B"/>
		<stop  offset="0.4593" style="stop-color:#E0BD5F"/>
		<stop  offset="0.6129" style="stop-color:#F8DF7C"/>
		<stop  offset="0.7204" style="stop-color:#FFF4A7"/>
		<stop  offset="0.8387" style="stop-color:#F8DF7C"/>
		<stop  offset="1" style="stop-color:#B47F2B"/>
	</linearGradient>
	<path class="st8" d="M1676.9,98.51c0,5.51-5.66,15.63-15.18,15.63l5.06-5.66c-5.51,0-9.97-4.46-9.97-9.97
		c0-5.66,4.46-10.12,9.97-10.12S1676.9,92.85,1676.9,98.51z"/>
	<linearGradient id="SVGID_7_" gradientUnits="userSpaceOnUse" x1="1687.3145" y1="156.1157" x2="1735.8389" y2="156.1157">
		<stop  offset="0" style="stop-color:#B47F2B"/>
		<stop  offset="0.1507" style="stop-color:#B47F2B"/>
		<stop  offset="0.4593" style="stop-color:#E0BD5F"/>
		<stop  offset="0.6129" style="stop-color:#F8DF7C"/>
		<stop  offset="0.7204" style="stop-color:#FFF4A7"/>
		<stop  offset="0.8387" style="stop-color:#F8DF7C"/>
		<stop  offset="1" style="stop-color:#B47F2B"/>
	</linearGradient>
	<path class="st9" d="M1712.62,137.81c-2.23,0.15-4.02,1.94-4.02,4.17c0,2.08,1.49,3.72,3.42,4.02
		c13.25,0.45,23.82,10.87,23.82,24.26c0,14.74-11.61,24.26-25.9,24.26h-22.63v-20.09h23.37c2.08-0.15,3.87-1.93,3.87-4.17
		c0-1.93-1.49-3.72-3.42-4.02c-13.1,0-23.82-11.31-23.82-24.26c0-14.29,11.46-24.26,25.3-24.26h23.22v20.09H1712.62z"/>
</g>
<g>
	<linearGradient id="SVGID_8_" gradientUnits="userSpaceOnUse" x1="1275.3135" y1="301.0566" x2="1381.5928" y2="301.0566">
		<stop  offset="0" style="stop-color:#B47F2B"/>
		<stop  offset="0.1507" style="stop-color:#B47F2B"/>
		<stop  offset="0.4593" style="stop-color:#E0BD5F"/>
		<stop  offset="0.6129" style="stop-color:#F8DF7C"/>
		<stop  offset="0.7204" style="stop-color:#FFF4A7"/>
		<stop  offset="0.8387" style="stop-color:#F8DF7C"/>
		<stop  offset="1" style="stop-color:#B47F2B"/>
	</linearGradient>
	<path class="st10" d="M1381.59,301.06c0,29.17-23.67,53.14-53.14,53.14c-29.32,0-53.14-23.82-53.14-53.14
		c0-29.32,23.82-53.14,53.14-53.14c14.59,0,27.69,5.8,37.36,15.33l-14.44,14.44c-5.8-5.8-13.99-9.38-22.92-9.38
		c-18.01,0-32.75,14.59-32.75,32.75c0,18.16,14.74,32.75,32.75,32.75c14.59,0,27.09-9.53,31.26-22.77h-31.71v-19.95h52.69
		C1381.29,294.21,1381.59,297.63,1381.59,301.06z"/>
	<linearGradient id="SVGID_9_" gradientUnits="userSpaceOnUse" x1="1391.8584" y1="315.7925" x2="1468.665" y2="315.7925">
		<stop  offset="0" style="stop-color:#B47F2B"/>
		<stop  offset="0.1507" style="stop-color:#B47F2B"/>
		<stop  offset="0.4593" style="stop-color:#E0BD5F"/>
		<stop  offset="0.6129" style="stop-color:#F8DF7C"/>
		<stop  offset="0.7204" style="stop-color:#FFF4A7"/>
		<stop  offset="0.8387" style="stop-color:#F8DF7C"/>
		<stop  offset="1" style="stop-color:#B47F2B"/>
	</linearGradient>
	<path class="st11" d="M1391.86,315.79c0-21.14,17.27-38.4,38.4-38.4s38.4,17.27,38.4,38.4h-20.09c0-10.12-8.19-18.31-18.31-18.31
		c-10.12,0-18.31,8.19-18.31,18.31v38.4h-20.09V315.79z"/>
	<linearGradient id="SVGID_10_" gradientUnits="userSpaceOnUse" x1="1474.9131" y1="315.7925" x2="1551.7197" y2="315.7925">
		<stop  offset="0" style="stop-color:#B47F2B"/>
		<stop  offset="0.1507" style="stop-color:#B47F2B"/>
		<stop  offset="0.4593" style="stop-color:#E0BD5F"/>
		<stop  offset="0.6129" style="stop-color:#F8DF7C"/>
		<stop  offset="0.7204" style="stop-color:#FFF4A7"/>
		<stop  offset="0.8387" style="stop-color:#F8DF7C"/>
		<stop  offset="1" style="stop-color:#B47F2B"/>
	</linearGradient>
	<path class="st12" d="M1551.72,315.79c0,21.14-17.27,38.4-38.4,38.4s-38.4-17.27-38.4-38.4s17.27-38.4,38.4-38.4
		S1551.72,294.66,1551.72,315.79z M1513.32,334.1c10.12,0,18.31-8.19,18.31-18.31s-8.19-18.31-18.31-18.31s-18.31,8.19-18.31,18.31
		S1503.19,334.1,1513.32,334.1z"/>
	<linearGradient id="SVGID_11_" gradientUnits="userSpaceOnUse" x1="1562.8818" y1="315.7925" x2="1639.6885" y2="315.7925">
		<stop  offset="0" style="stop-color:#B47F2B"/>
		<stop  offset="0.1507" style="stop-color:#B47F2B"/>
		<stop  offset="0.4593" style="stop-color:#E0BD5F"/>
		<stop  offset="0.6129" style="stop-color:#F8DF7C"/>
		<stop  offset="0.7204" style="stop-color:#FFF4A7"/>
		<stop  offset="0.8387" style="stop-color:#F8DF7C"/>
		<stop  offset="1" style="stop-color:#B47F2B"/>
	</linearGradient>
	<path class="st13" d="M1619.59,277.39h20.09v39.74c-0.74,20.54-17.71,37.06-38.4,37.06s-37.66-16.52-38.4-37.06v-39.74h20.09v38.4
		c0,10.12,8.19,18.31,18.31,18.31s18.31-8.19,18.31-18.31V277.39z"/>
	<linearGradient id="SVGID_12_" gradientUnits="userSpaceOnUse" x1="1652.1875" y1="329.3379" x2="1728.9941" y2="329.3379">
		<stop  offset="0" style="stop-color:#B47F2B"/>
		<stop  offset="0.1507" style="stop-color:#B47F2B"/>
		<stop  offset="0.4593" style="stop-color:#E0BD5F"/>
		<stop  offset="0.6129" style="stop-color:#F8DF7C"/>
		<stop  offset="0.7204" style="stop-color:#FFF4A7"/>
		<stop  offset="0.8387" style="stop-color:#F8DF7C"/>
		<stop  offset="1" style="stop-color:#B47F2B"/>
	</linearGradient>
	<path class="st14" d="M1728.99,315.79c0,21.14-17.27,38.4-38.4,38.4c-6.7,0-12.95-1.64-18.31-4.61v31.71h-20.09v-65.49
		c0-21.14,17.27-38.4,38.4-38.4S1728.99,294.66,1728.99,315.79z M1690.59,297.48c-10.12,0-18.31,8.19-18.31,18.31
		s8.19,18.31,18.31,18.31c10.12,0,18.31-8.19,18.31-18.31S1700.71,297.48,1690.59,297.48z"/>
</g>
<g>
	<path class="st15" d="M1320.12,576.96h-15.48v29.32h-20.09l-0.15-67.88c0-21.14,17.27-38.4,38.4-38.4
		c20.09,0,37.06,15.78,38.25,36.02C1361.05,558.65,1342.74,576.96,1320.12,576.96z M1340.96,536.77
		c-0.74-9.38-8.63-16.67-18.16-16.67c-9.97,0-18.16,8.19-18.16,18.31v18.46h16.22C1332.03,556.86,1340.96,547.78,1340.96,536.77z"/>
	<path class="st15" d="M1369.83,567.88c0-21.14,17.27-38.4,38.4-38.4s38.4,17.27,38.4,38.4h-20.09c0-10.12-8.19-18.31-18.31-18.31
		c-10.12,0-18.31,8.19-18.31,18.31v38.4h-20.09V567.88z"/>
	<path class="st15" d="M1509.6,601.66c-5.51,2.98-11.61,4.61-18.31,4.61c-21.14,0-38.4-17.27-38.4-38.4s17.27-38.4,38.4-38.4
		s38.4,17.27,38.4,38.4v38.4h-20.09V601.66z M1491.29,586.18c10.12,0,18.31-8.19,18.31-18.31s-8.19-18.31-18.31-18.31
		s-18.31,8.19-18.31,18.31S1481.17,586.18,1491.29,586.18z"/>
	<path class="st15" d="M1590.87,553.59v52.69h-20.09v-52.69c0-2.23-1.79-4.02-4.02-4.02c-2.38,0-4.17,1.79-4.17,4.17v52.54h-20.09
		v-52.54c0-13.4,10.87-24.26,24.26-24.26c5.21,0,10.12,1.79,14.14,4.61c4.02-2.83,8.78-4.61,14.14-4.61
		c13.4,0,24.26,10.87,24.26,24.26v52.54h-20.09v-52.54c0-2.38-1.94-4.17-4.17-4.17S1590.87,551.35,1590.87,553.59z"/>
	<path class="st15" d="M1642.81,500c5.66,0,10.12,4.46,10.12,9.97c0,5.66-4.47,10.12-10.12,10.12c-5.51,0-9.97-4.47-9.97-10.12
		C1632.84,504.46,1637.31,500,1642.81,500z M1652.93,529.47v76.81h-20.09v-76.81H1652.93z"/>
	<path class="st15" d="M1684.64,510.27c0,5.51-5.66,15.63-15.18,15.63l5.06-5.66c-5.51,0-9.97-4.46-9.97-9.97
		c0-5.66,4.46-10.12,9.97-10.12S1684.64,504.61,1684.64,510.27z"/>
	<path class="st15" d="M1720.36,549.57c-2.23,0.15-4.02,1.94-4.02,4.17c0,2.08,1.49,3.72,3.42,4.02
		c13.25,0.45,23.82,10.87,23.82,24.26c0,14.74-11.61,24.26-25.9,24.26h-22.63v-20.09h23.37c2.08-0.15,3.87-1.93,3.87-4.17
		c0-1.93-1.49-3.72-3.42-4.02c-13.1,0-23.82-11.31-23.82-24.26c0-14.29,11.46-24.26,25.3-24.26h23.22v20.09H1720.36z"/>
</g>
<g>
	<path class="st15" d="M1389.33,712.82c0,29.17-23.67,53.14-53.14,53.14c-29.32,0-53.14-23.82-53.14-53.14
		c0-29.32,23.82-53.14,53.14-53.14c14.59,0,27.69,5.8,37.36,15.33l-14.44,14.44c-5.8-5.8-13.99-9.38-22.92-9.38
		c-18.01,0-32.75,14.59-32.75,32.75c0,18.16,14.74,32.75,32.75,32.75c14.59,0,27.09-9.53,31.26-22.77h-31.71v-19.95h52.69
		C1389.04,705.97,1389.33,709.39,1389.33,712.82z"/>
	<path class="st15" d="M1399.6,727.55c0-21.14,17.27-38.4,38.4-38.4s38.4,17.27,38.4,38.4h-20.09c0-10.12-8.19-18.31-18.31-18.31
		c-10.12,0-18.31,8.19-18.31,18.31v38.4h-20.09V727.55z"/>
	<path class="st15" d="M1559.46,727.55c0,21.14-17.27,38.4-38.4,38.4s-38.4-17.27-38.4-38.4s17.27-38.4,38.4-38.4
		S1559.46,706.42,1559.46,727.55z M1521.06,745.86c10.12,0,18.31-8.19,18.31-18.31s-8.19-18.31-18.31-18.31s-18.31,8.19-18.31,18.31
		S1510.93,745.86,1521.06,745.86z"/>
	<path class="st15" d="M1627.33,689.15h20.09v39.74c-0.74,20.54-17.71,37.06-38.4,37.06s-37.66-16.52-38.4-37.06v-39.74h20.09v38.4
		c0,10.12,8.19,18.31,18.31,18.31s18.31-8.19,18.31-18.31V689.15z"/>
	<path class="st15" d="M1736.73,727.55c0,21.14-17.27,38.4-38.4,38.4c-6.7,0-12.95-1.64-18.31-4.61v31.71h-20.09v-65.49
		c0-21.14,17.27-38.4,38.4-38.4S1736.73,706.42,1736.73,727.55z M1698.33,709.24c-10.12,0-18.31,8.19-18.31,18.31
		s8.19,18.31,18.31,18.31c10.12,0,18.31-8.19,18.31-18.31S1708.45,709.24,1698.33,709.24z"/>
</g>
<linearGradient id="SVGID_13_" gradientUnits="userSpaceOnUse" x1="68.2115" y1="194.5191" x2="357.3674" y2="194.5191">
	<stop  offset="0" style="stop-color:#B47F2B"/>
	<stop  offset="0.1507" style="stop-color:#B47F2B"/>
	<stop  offset="0.4593" style="stop-color:#E0BD5F"/>
	<stop  offset="0.6129" style="stop-color:#F8DF7C"/>
	<stop  offset="0.7204" style="stop-color:#FFF4A7"/>
	<stop  offset="0.8387" style="stop-color:#F8DF7C"/>
	<stop  offset="1" style="stop-color:#B47F2B"/>
</linearGradient>
<path class="st16" d="M284.41,68.99c35.43,0,64.25,28.82,64.25,64.25c0,35.43-28.82,64.25-64.25,64.25h-88.66
	c-22.08,0-40.56,7.61-54.93,22.62c-9.36,9.78-16.07,21.81-20.86,34.27c-0.31-6.43-0.49-10.69-0.52-11.57c0-0.69,0.01-1.37,0.02-2.04
	c0.35-21.73,9.14-42.1,24.76-57.36c15.61-15.24,36.22-23.64,58.04-23.64h88.96c13.25,0,24.03-10.78,24.03-24.03
	s-10.78-24.03-24.03-24.03H131.95l-42.7-42.7H284.41 M284.41,60.28H68.21l60.13,60.13h162.89c8.46,0,15.32,6.86,15.32,15.32
	s-6.86,15.32-15.32,15.32h-88.96c-49.79,0-90.72,39.79-91.52,89.57c-0.01,0.78-0.02,1.56-0.02,2.35c0,0,1.92,50.17,6.13,85.79
	c0,0-5.36-122.56,78.9-122.56h88.66c40.29,0,72.96-32.66,72.96-72.96v0C357.37,92.95,324.7,60.28,284.41,60.28L284.41,60.28z"/>
<linearGradient id="SVGID_14_" gradientUnits="userSpaceOnUse" x1="137.1276" y1="293.7379" x2="357.3674" y2="293.7379">
	<stop  offset="0" style="stop-color:#B47F2B"/>
	<stop  offset="0.1507" style="stop-color:#B47F2B"/>
	<stop  offset="0.4593" style="stop-color:#E0BD5F"/>
	<stop  offset="0.6129" style="stop-color:#F8DF7C"/>
	<stop  offset="0.7204" style="stop-color:#FFF4A7"/>
	<stop  offset="0.8387" style="stop-color:#F8DF7C"/>
	<stop  offset="1" style="stop-color:#B47F2B"/>
</linearGradient>
<path class="st17" d="M282.09,232.87c12.16,0,24.67,0.03,36.78,0.06c6.28,0.02,12.66,0.03,19.11,0.04
	c-5.34,6.01-10.46,11.81-15.45,17.65c-0.02,0.03-0.04,0.05-0.06,0.06c-0.51,0.13-1.86,0.15-2.78,0.16
	c-0.58,0.01-1.16,0.02-1.74,0.04c-5.4,0.19-11.28,0.28-17.98,0.28c-6.56,0-13.26-0.09-19.74-0.17c-6.53-0.08-13.29-0.17-19.96-0.17
	c-16.32,0-28.82,0.54-40.53,1.75c-26.14,2.71-43.74,21.49-41.84,44.66c0.9,10.95,6.11,19.79,15.5,26.26
	c16.39,11.31,34.01,11.54,51.06,11.76c1.33,0.02,2.65,0.03,3.98,0.06c1.71,0.03,4.18,0.04,7.34,0.04c10.75,0,26.32-0.17,31.42-0.23
	c9.2-0.12,17.16-6.27,19.81-14.81l0.58,0.04c0,0,0.06-0.98,0.12-2.15l0.04-0.75l-0.08,0c0-0.01,0-0.03,0.01-0.04l0.08,0l0.03-0.57
	l0.02-0.43c0.08-0.73,0.12-1.47,0.12-2.21c0.36-8.94-5.89-16.96-18.59-23.85c-1.54-0.84-3.09-1.61-4.57-2.3l22.59-0.03h0.05
	c6.08,0,11.82,2.35,16.16,6.61c4.29,4.21,6.73,9.83,6.89,15.84c-0.41,11.69-3.63,21.61-9.32,28.68c-5.8,7.2-13.99,11.35-24.36,12.32
	c-16.46,1.55-33.47,3.14-50.24,3.14c-24.13,0-43.59-3.35-61.24-10.55c-13.16-5.36-24.22-14.06-31.15-24.5
	c-7.45-11.22-9.94-24.18-7.18-37.49c2.06-9.94,6.5-18.12,13.59-25.03c6.18-6.02,14.62-11.28,25.79-16.07
	c11.57-4.96,24.45-7.57,38.3-7.77C241.28,232.98,259.54,232.87,282.09,232.87 M282.09,224.15c-19.34,0-38.46,0.07-57.59,0.34
	c-14.16,0.2-28.35,2.79-41.61,8.47c-21.67,9.29-39.33,22.48-44.48,47.33c-6.92,33.45,14.94,60.16,43.58,71.83
	c21.04,8.58,42.71,11.19,64.53,11.19c17.01,0,34.11-1.59,51.06-3.18c26.31-2.47,40.72-22.42,41.58-49.63v0
	c-0.31-17.33-14.44-31.21-31.76-31.21c-0.02,0-0.03,0-0.05,0l-78.51,0.12c-2.08,0-4.15,0-6.36,0c-3.84,0-8.07,0-13.39,0
	c0,0,43.7,5.46,61.51,12.36c0,0,29.35,9.21,28.61,22.22c0.01,0.56-0.03,1.12-0.09,1.66c-0.1,1.71-0.24,4.12-0.24,4.12
	s0.06-1.07,0.24-4.12c-0.75,6-5.83,10.67-12.04,10.75c-6.17,0.08-21.19,0.23-31.31,0.23c-2.91,0-5.41-0.01-7.19-0.04
	c-17.34-0.3-34.84,0.35-50.23-10.27c-7.2-4.96-11.07-11.32-11.76-19.8c-1.49-18.14,12.2-33.02,34.05-35.28
	c13.19-1.37,26.41-1.71,39.64-1.71c13.23,0,26.47,0.34,39.71,0.34c6.09,0,12.19-0.07,18.28-0.28c4-0.14,7.78,0.36,10.91-3.31
	c8.72-10.22,17.75-20.18,28.21-32C331.64,224.28,306.7,224.15,282.09,224.15L282.09,224.15z M299.21,314c0,0,0,0.01,0,0.02
	C299.21,314.01,299.21,314,299.21,314L299.21,314z M299.21,314.01L299.21,314.01C299.21,314.02,299.21,314.01,299.21,314.01
	L299.21,314.01z M299.21,314.02C299.21,314.02,299.21,314.02,299.21,314.02C299.21,314.02,299.21,314.02,299.21,314.02
	L299.21,314.02z M299.21,314.02L299.21,314.02C299.21,314.02,299.21,314.02,299.21,314.02L299.21,314.02z M299.21,314.02
	C299.21,314.03,299.21,314.03,299.21,314.02C299.21,314.03,299.21,314.03,299.21,314.02L299.21,314.02z M299.21,314.03
	C299.21,314.03,299.2,314.04,299.21,314.03C299.2,314.03,299.21,314.03,299.21,314.03L299.21,314.03z M299.2,314.04
	C299.2,314.04,299.2,314.04,299.2,314.04C299.2,314.04,299.2,314.04,299.2,314.04L299.2,314.04z M299.2,314.04L299.2,314.04
	C299.2,314.04,299.2,314.04,299.2,314.04L299.2,314.04z M299.2,314.04C299.2,314.04,299.2,314.05,299.2,314.04
	C299.2,314.05,299.2,314.05,299.2,314.04L299.2,314.04z M299.2,314.05c-0.03,0.59-0.06,1.12-0.09,1.61v0
	C299.16,314.87,299.19,314.23,299.2,314.05L299.2,314.05z"/>
<linearGradient id="SVGID_15_" gradientUnits="userSpaceOnUse" x1="81.9991" y1="757.5114" x2="371.155" y2="757.5114">
	<stop  offset="0" style="stop-color:#B47F2B"/>
	<stop  offset="0.1507" style="stop-color:#B47F2B"/>
	<stop  offset="0.4593" style="stop-color:#E0BD5F"/>
	<stop  offset="0.6129" style="stop-color:#F8DF7C"/>
	<stop  offset="0.7204" style="stop-color:#FFF4A7"/>
	<stop  offset="0.8387" style="stop-color:#F8DF7C"/>
	<stop  offset="1" style="stop-color:#B47F2B"/>
</linearGradient>
<path class="st18" d="M130.64,891.75c0,0-5.36-122.56,78.9-122.56h88.66c40.29,0,72.96-32.66,72.96-72.96v0
	c0-40.29-32.66-72.96-72.96-72.96H82l60.13,60.13h162.89c8.46,0,15.32,6.86,15.32,15.32v0c0,8.46-6.86,15.32-15.32,15.32h-88.96
	c-49.79,0-90.72,39.79-91.52,89.57c-0.01,0.78-0.02,1.56-0.02,2.35C124.51,805.96,126.43,856.13,130.64,891.75z"/>
<linearGradient id="SVGID_16_" gradientUnits="userSpaceOnUse" x1="150.9152" y1="856.73" x2="371.155" y2="856.73">
	<stop  offset="0" style="stop-color:#B47F2B"/>
	<stop  offset="0.1507" style="stop-color:#B47F2B"/>
	<stop  offset="0.4593" style="stop-color:#E0BD5F"/>
	<stop  offset="0.6129" style="stop-color:#F8DF7C"/>
	<stop  offset="0.7204" style="stop-color:#FFF4A7"/>
	<stop  offset="0.8387" style="stop-color:#F8DF7C"/>
	<stop  offset="1" style="stop-color:#B47F2B"/>
</linearGradient>
<path class="st19" d="M284.38,854.77c-17.81-6.89-61.51-12.36-61.51-12.36c8.38,0,14.07,0,19.75,0l78.51-0.12
	c17.35-0.03,31.51,13.86,31.81,31.21h0c-0.86,27.21-15.27,47.16-41.58,49.63c-38.67,3.63-78.13,7.26-115.58-8.01
	c-28.63-11.67-50.5-38.37-43.58-71.83c5.14-24.85,22.81-38.04,44.48-47.33c13.26-5.69,27.45-8.27,41.61-8.47
	c43.45-0.61,86.92-0.22,132.86-0.22c-10.46,11.82-19.49,21.77-28.21,32c-3.13,3.67-6.91,3.17-10.91,3.31
	c-32.54,1.13-65.17-1.71-97.62,1.65c-21.86,2.26-35.54,17.14-34.05,35.28c0.7,8.49,4.57,14.84,11.76,19.8
	c15.4,10.62,32.9,9.98,50.23,10.27c7.94,0.14,30.55-0.09,38.49-0.19c6.77-0.08,12.2-5.64,12.13-12.41c0,0-0.74,13.01,0,0
	C313.74,863.98,284.38,854.77,284.38,854.77z"/>
<linearGradient id="SVGID_17_" gradientUnits="userSpaceOnUse" x1="2237.0566" y1="201.2216" x2="2526.2124" y2="201.2216">
	<stop  offset="0" style="stop-color:#B47F2B"/>
	<stop  offset="0.1507" style="stop-color:#B47F2B"/>
	<stop  offset="0.4593" style="stop-color:#E0BD5F"/>
	<stop  offset="0.6129" style="stop-color:#F8DF7C"/>
	<stop  offset="0.7204" style="stop-color:#FFF4A7"/>
	<stop  offset="0.8387" style="stop-color:#F8DF7C"/>
	<stop  offset="1" style="stop-color:#B47F2B"/>
</linearGradient>
<path class="st20" d="M2453.25,75.7c35.43,0,64.25,28.82,64.25,64.25c0,35.43-28.82,64.25-64.25,64.25h-88.66
	c-22.08,0-40.56,7.61-54.93,22.62c-9.36,9.78-16.07,21.81-20.86,34.27c-0.31-6.43-0.49-10.69-0.52-11.57c0-0.69,0.01-1.37,0.02-2.04
	c0.35-21.73,9.14-42.1,24.76-57.36c15.61-15.24,36.22-23.64,58.04-23.64h88.96c13.25,0,24.03-10.78,24.03-24.03
	s-10.78-24.03-24.03-24.03h-159.28l-42.7-42.7H2453.25 M2453.25,66.98h-216.2l60.13,60.13h162.89c8.46,0,15.32,6.86,15.32,15.32
	s-6.86,15.32-15.32,15.32h-88.96c-49.79,0-90.72,39.79-91.52,89.57c-0.01,0.78-0.02,1.56-0.02,2.35c0,0,1.92,50.17,6.13,85.79
	c0,0-5.36-122.56,78.9-122.56h88.66c40.29,0,72.96-32.66,72.96-72.96v0C2526.21,99.65,2493.55,66.98,2453.25,66.98L2453.25,66.98z"
	/>
<linearGradient id="SVGID_18_" gradientUnits="userSpaceOnUse" x1="2305.9727" y1="300.4404" x2="2526.2124" y2="300.4404">
	<stop  offset="0" style="stop-color:#B47F2B"/>
	<stop  offset="0.1507" style="stop-color:#B47F2B"/>
	<stop  offset="0.4593" style="stop-color:#E0BD5F"/>
	<stop  offset="0.6129" style="stop-color:#F8DF7C"/>
	<stop  offset="0.7204" style="stop-color:#FFF4A7"/>
	<stop  offset="0.8387" style="stop-color:#F8DF7C"/>
	<stop  offset="1" style="stop-color:#B47F2B"/>
</linearGradient>
<path class="st21" d="M2450.94,239.57c12.16,0,24.67,0.03,36.78,0.06c6.28,0.02,12.66,0.03,19.11,0.04
	c-5.34,6.01-10.46,11.81-15.45,17.65c-0.02,0.03-0.04,0.05-0.06,0.06c-0.51,0.13-1.86,0.15-2.78,0.16
	c-0.58,0.01-1.16,0.02-1.74,0.04c-5.4,0.19-11.28,0.28-17.98,0.28c-6.56,0-13.26-0.09-19.74-0.17c-6.53-0.08-13.29-0.17-19.96-0.17
	c-16.32,0-28.82,0.54-40.53,1.75c-26.14,2.71-43.74,21.49-41.84,44.66c0.9,10.95,6.11,19.79,15.5,26.26
	c16.39,11.31,34.01,11.54,51.06,11.76c1.33,0.02,2.65,0.03,3.98,0.06c1.71,0.03,4.18,0.04,7.34,0.04c10.76,0,26.32-0.17,31.42-0.23
	c9.2-0.12,17.16-6.27,19.81-14.81l0.58,0.04c0,0,0.06-0.98,0.12-2.15l0.04-0.75l-0.08,0c0-0.01,0-0.03,0.01-0.04l0.08,0l0.03-0.57
	l0.02-0.43c0.08-0.73,0.12-1.47,0.12-2.21c0.36-8.94-5.89-16.96-18.59-23.85c-1.54-0.84-3.09-1.61-4.57-2.3l22.59-0.03h0.05
	c6.08,0,11.82,2.35,16.16,6.61c4.29,4.21,6.73,9.83,6.89,15.84c-0.41,11.69-3.63,21.61-9.32,28.68c-5.8,7.2-13.99,11.35-24.36,12.32
	c-16.46,1.55-33.47,3.14-50.24,3.14c-24.13,0-43.59-3.35-61.24-10.55c-13.16-5.36-24.22-14.06-31.15-24.5
	c-7.45-11.22-9.94-24.18-7.18-37.49c2.06-9.94,6.5-18.12,13.59-25.03c6.18-6.02,14.62-11.28,25.79-16.07
	c11.57-4.96,24.45-7.57,38.3-7.77C2410.13,239.68,2428.39,239.57,2450.94,239.57 M2450.94,230.86c-19.34,0-38.46,0.07-57.59,0.34
	c-14.16,0.2-28.35,2.79-41.61,8.47c-21.67,9.29-39.33,22.48-44.48,47.33c-6.93,33.45,14.94,60.16,43.58,71.83
	c21.04,8.58,42.71,11.19,64.53,11.19c17.01,0,34.11-1.59,51.06-3.18c26.31-2.47,40.72-22.42,41.58-49.63v0
	c-0.31-17.33-14.44-31.21-31.76-31.21c-0.02,0-0.03,0-0.05,0l-78.51,0.12c-2.08,0-4.15,0-6.36,0c-3.84,0-8.07,0-13.39,0
	c0,0,43.7,5.46,61.51,12.36c0,0,29.35,9.21,28.61,22.22c0.01,0.56-0.03,1.12-0.09,1.66c-0.1,1.71-0.24,4.12-0.24,4.12
	s0.06-1.07,0.24-4.12c-0.75,6-5.83,10.67-12.04,10.75c-6.17,0.08-21.19,0.23-31.31,0.23c-2.91,0-5.41-0.01-7.19-0.04
	c-17.34-0.3-34.84,0.35-50.23-10.27c-7.2-4.96-11.07-11.32-11.76-19.8c-1.49-18.14,12.2-33.02,34.05-35.28
	c13.19-1.37,26.41-1.71,39.64-1.71c13.23,0,26.47,0.34,39.71,0.34c6.09,0,12.19-0.07,18.28-0.28c4-0.14,7.78,0.36,10.91-3.31
	c8.72-10.22,17.75-20.18,28.21-32C2500.49,230.98,2475.54,230.86,2450.94,230.86L2450.94,230.86z M2468.05,320.7c0,0,0,0.01,0,0.02
	C2468.05,320.71,2468.05,320.71,2468.05,320.7L2468.05,320.7z M2468.05,320.72L2468.05,320.72
	C2468.05,320.72,2468.05,320.72,2468.05,320.72L2468.05,320.72z M2468.05,320.72C2468.05,320.72,2468.05,320.72,2468.05,320.72
	C2468.05,320.72,2468.05,320.72,2468.05,320.72L2468.05,320.72z M2468.05,320.73L2468.05,320.73
	C2468.05,320.73,2468.05,320.73,2468.05,320.73L2468.05,320.73z M2468.05,320.73C2468.05,320.73,2468.05,320.73,2468.05,320.73
	C2468.05,320.73,2468.05,320.73,2468.05,320.73L2468.05,320.73z M2468.05,320.73C2468.05,320.74,2468.05,320.74,2468.05,320.73
	C2468.05,320.74,2468.05,320.74,2468.05,320.73L2468.05,320.73z M2468.05,320.74C2468.05,320.74,2468.05,320.74,2468.05,320.74
	C2468.05,320.74,2468.05,320.74,2468.05,320.74L2468.05,320.74z M2468.05,320.74L2468.05,320.74
	C2468.05,320.74,2468.05,320.74,2468.05,320.74L2468.05,320.74z M2468.05,320.74C2468.05,320.75,2468.05,320.75,2468.05,320.74
	C2468.05,320.75,2468.05,320.75,2468.05,320.74L2468.05,320.74z M2468.05,320.75c-0.03,0.59-0.06,1.12-0.09,1.61v0
	C2468,321.57,2468.04,320.94,2468.05,320.75L2468.05,320.75z"/>
<linearGradient id="SVGID_19_" gradientUnits="userSpaceOnUse" x1="2250.844" y1="764.2139" x2="2540" y2="764.2139">
	<stop  offset="0" style="stop-color:#B47F2B"/>
	<stop  offset="0.1507" style="stop-color:#B47F2B"/>
	<stop  offset="0.4593" style="stop-color:#E0BD5F"/>
	<stop  offset="0.6129" style="stop-color:#F8DF7C"/>
	<stop  offset="0.7204" style="stop-color:#FFF4A7"/>
	<stop  offset="0.8387" style="stop-color:#F8DF7C"/>
	<stop  offset="1" style="stop-color:#B47F2B"/>
</linearGradient>
<path class="st22" d="M2299.48,898.45c0,0-5.36-122.56,78.9-122.56h88.66c40.29,0,72.96-32.66,72.96-72.96v0
	c0-40.29-32.67-72.96-72.96-72.96h-216.2l60.13,60.13h162.89c8.46,0,15.32,6.86,15.32,15.32v0c0,8.46-6.86,15.32-15.32,15.32h-88.96
	c-49.79,0-90.72,39.79-91.52,89.57c-0.01,0.78-0.02,1.56-0.02,2.35C2293.36,812.66,2295.27,862.83,2299.48,898.45z"/>
<linearGradient id="SVGID_20_" gradientUnits="userSpaceOnUse" x1="2319.7603" y1="863.4326" x2="2540" y2="863.4326">
	<stop  offset="0" style="stop-color:#B47F2B"/>
	<stop  offset="0.1507" style="stop-color:#B47F2B"/>
	<stop  offset="0.4593" style="stop-color:#E0BD5F"/>
	<stop  offset="0.6129" style="stop-color:#F8DF7C"/>
	<stop  offset="0.7204" style="stop-color:#FFF4A7"/>
	<stop  offset="0.8387" style="stop-color:#F8DF7C"/>
	<stop  offset="1" style="stop-color:#B47F2B"/>
</linearGradient>
<path class="st23" d="M2453.23,861.47c-17.81-6.89-61.51-12.36-61.51-12.36c8.38,0,14.07,0,19.75,0l78.51-0.12
	c17.35-0.03,31.51,13.86,31.81,31.21l0,0c-0.86,27.21-15.27,47.16-41.58,49.63c-38.67,3.63-78.13,7.26-115.58-8.01
	c-28.63-11.67-50.5-38.37-43.58-71.83c5.14-24.85,22.81-38.04,44.48-47.33c13.26-5.69,27.45-8.27,41.61-8.47
	c43.45-0.61,86.92-0.22,132.86-0.22c-10.46,11.82-19.49,21.77-28.21,32c-3.13,3.67-6.91,3.17-10.91,3.31
	c-32.54,1.13-65.17-1.71-97.62,1.65c-21.86,2.26-35.54,17.14-34.05,35.28c0.7,8.49,4.57,14.84,11.76,19.8
	c15.4,10.62,32.9,9.98,50.23,10.27c7.94,0.14,30.55-0.09,38.49-0.19c6.77-0.08,12.2-5.64,12.13-12.41c0,0-0.74,13.01,0,0
	C2482.58,870.68,2453.23,861.47,2453.23,861.47z"/>
</svg>
